<svg id="Layer_1" data-name="Layer 1" xmlns="http://www.w3.org/2000/svg" viewBox="0 0 290 49"><defs><style>.cls-1{fill:#78be20;}.cls-2{fill:#54565b;}</style></defs><title>TeranetCorp_Logo_2017</title><path class="cls-1" d="M68.749,40.21805c-2.12339-1.041-9.90278-1.38086-20.37993-1.09764,9.19863-17.13123,13.45883-32.75226,8.893-37.393C51.82175-3.75,33.76129,6.74709,16.1311,24.53841,9.77836,30.94694,4.01657,37.08215.02247,43.06667h.0243A120.263,120.263,0,0,1,15.354,28.18741C33.64634,13.92328,42.22039,11.57563,46.58268,14.68285c3.6767,2.66268,2.05919,11.983-1.20217,24.53239-6.93224.25235-14.83337.75088-22.96482,1.47873-7.95976.70861-15.32549,1.40415-20.8788,2.25922v.0243c5.05588-.53051,11.74682-1.17053,19.105-1.56377,10.73769-.54477,18.68556-.837,24.38584-.853-.67529,2.55722-1.41022,5.23693-2.17772,8.01579h.0243c1.67362-2.67407,3.24415-5.35243,4.70288-8.0022,4.33672.06319,7.04706.33705,8.46842.83938,3.36049,1.208-2.38712,4.09458-11.99959,7.2903v.0243C62.36477,45.60491,72.45333,42.04817,68.749,40.21805Z"/><path class="cls-1" d="M75.54619,38.51018a2.37281,2.37281,0,1,1-.01068,0Zm0,4.40076a2.03588,2.03588,0,1,0-2.01956-2.05207q-.00008.00973-.00006.01946a2.01594,2.01594,0,0,0,1.99921,2.03254Q75.536,42.911,75.54619,42.91094Zm.40657-1.92934c.15482.23227.53549.92915.76134,1.36787h-.53557l-.38708-.72911c-.18072-.37426-.29689-.58712-.29689-.58712h-.43231v1.31624h-.48394V39.362h.97437c.58721,0,1.01951.20653,1.01951.81306a.708.708,0,0,1-.59726.80362l-.02217.00291Zm-.52916-.342c.4194,0,.684-.058.684-.46453,0-.413-.25808-.41948-.71621-.41948h-.33553v.884Z"/><path class="cls-2" d="M101.55217,42.34945H95.09636V15.37366H85.81946V10.62952A1.00451,1.00451,0,0,1,86.82393,9.625h25.72444l-1.13628,4.96813a1.00459,1.00459,0,0,1-.97935.78058h-7.87608V41.34487a1.00451,1.00451,0,0,1-1.00444,1.00458Z"/><path class="cls-2" d="M226.16971,42.34945h-5.76787a1.00454,1.00454,0,0,1-.82394-.42986l-13.944-19.99217V41.34487a1.00458,1.00458,0,0,1-1.00458,1.00458h-5.915V9.625h5.63406a1.00454,1.00454,0,0,1,.8215.4264l14.08,20.00635V10.62952A1.00458,1.00458,0,0,1,220.25446,9.625h5.91527Z"/><path class="cls-2" d="M253.031,42.34945H232.898a1.00458,1.00458,0,0,1-1.00458-1.00458V9.625h22.3712l-1.3149,5.74871h-13.551v6.951h13.10507v4.69909a1.00458,1.00458,0,0,1-1.00458,1.00458H239.39872v8.57785h14.63686v4.73865A1.00458,1.00458,0,0,1,253.031,42.34945Z"/><path class="cls-2" d="M136.13422,42.34945h-20.133a1.00458,1.00458,0,0,1-1.00458-1.00458V9.625h22.37112l-1.13631,4.96809a1.00448,1.00448,0,0,1-.97926.78058H122.5019v6.951h13.105v4.69913a1.0045,1.0045,0,0,1-1.00444,1.00458H122.502v8.57785h14.63688v4.73865a1.00459,1.00459,0,0,1-1.00461,1.00458Z"/><path class="cls-2" d="M271.62638,42.34945h-6.45572V15.37366h-9.7932l1.3149-5.74871h25.26059v4.74414a1.00458,1.00458,0,0,1-1.00458,1.00458H272.631v25.9712A1.00458,1.00458,0,0,1,271.62638,42.34945Z"/><path class="cls-2" d="M186.13247,10.51605a1.33952,1.33952,0,0,0-1.26224-.8911h-4.94156a1.3394,1.3394,0,0,0-1.2571.877L168.1577,39.08464l-.30887.95927c-1.90564-3.84882-5.61769-11.2682-6.41286-12.284,3.61613-1.5507,5.37691-4.37637,5.37691-8.61792,0-8.36414-6.04594-9.517-12.57928-9.517H141.51914V42.34945h6.5007a1.00458,1.00458,0,0,0,1.00458-1.00458v-12.145c1.246.00228,4.58173,0,5.725,0,.37511.71865,4.65378,9.69236,5.93854,12.38845a1.33586,1.33586,0,0,0,1.20816.76109h11.69864a1.33932,1.33932,0,0,0,1.26974-.913l1.62183-4.83019h11.839l1.61726,4.82918a1.33928,1.33928,0,0,0,1.2701.91405h6.2281Zm-31.71858,13.7456h-5.38947v-8.933H154.549c3.63359,0,5.25414,1.48742,5.25414,4.1868,0,3.16547-1.51112,4.7462-5.38931,4.7462ZM178.14435,31.668l4.26906-12.715,4.25806,12.715Z"/><path class="cls-2" d="M287.64145,9.96681a2.37241,2.37241,0,1,1-.01071,0Zm0,4.40076a2.03588,2.03588,0,1,0-2.01962-2.052l-.00006.0194a2.016,2.016,0,0,0,1.99933,2.03254C287.62787,14.36756,287.63468,14.36758,287.64145,14.36757Zm.40649-1.92934c.15491.23227.53558.92915.76144,1.36787h-.53558l-.38718-.72911c-.18063-.37426-.29681-.58712-.29681-.58712h-.43231v1.31622h-.48395v-2.9875h.9743c.58722,0,1.0195.20645,1.0195.813a.70794.70794,0,0,1-.597.80369l-.0224.00294Zm-.52908-.342c.4194,0,.684-.058.684-.46462,0-.4129-.25818-.4194-.71628-.4194H287.151v.884Z"/></svg>